<svg width="31" height="30" viewBox="0 0 31 30" fill="none" xmlns="http://www.w3.org/2000/svg">
<ellipse cx="15.5" cy="15" rx="15.5" ry="15" fill="#1EE41A"/>
<path d="M8.48572 16.3779C6.56032 16.3786 5 18.0841 5 20.1893C5 21.7015 5.80717 23.0035 6.97481 23.6195C7.43207 23.8608 7.94381 24 8.48572 24.0004C10.1753 23.9995 11.5829 22.6859 11.9022 20.9421H16.7401L19.5229 14.9483L20.5333 17.0557C19.6249 17.7434 19.029 18.8895 19.029 20.1893C19.029 22.294 20.5895 23.9995 22.5149 24.0004C24.4399 23.9995 26 22.294 26 20.1893C26 18.0842 24.4398 16.3787 22.5149 16.3779C22.1471 16.3779 21.7932 16.4411 21.4606 16.5566L18.3512 10.0735H16.0169V10.5278C16.1688 10.513 16.3259 10.4941 16.4909 10.4686C16.526 10.4631 16.5617 10.4604 16.597 10.4604C16.9702 10.4604 17.291 10.7654 17.3432 11.17C17.3447 11.181 17.3449 11.1918 17.346 11.2027H17.7266L18.2459 12.285H13.822L13.6715 12.6689L16.0868 14.0138C16.5687 14.2823 16.7976 14.8856 16.631 15.4482L15.4743 19.3525C15.3276 19.8475 14.9094 20.1803 14.4337 20.1803C14.3194 20.1803 14.2059 20.1606 14.0964 20.1217C13.8184 20.0233 13.5922 19.8123 13.4593 19.5277C13.3264 19.2432 13.3027 18.9193 13.3929 18.6154L14.262 15.682L11.7102 14.261H6.50608L5.73158 15.6874L10.0027 15.6875C10.8398 16.2709 12.3318 17.556 12.6404 19.4365H11.9022C11.5829 17.6923 10.1754 16.3786 8.48572 16.3779ZM10.476 20.9421C10.1895 21.8441 9.40831 22.4926 8.48572 22.4941C7.32117 22.4922 6.37903 21.4618 6.37669 20.1894C6.37903 18.9157 7.32125 17.8862 8.48572 17.8835C9.40824 17.8857 10.19 18.5339 10.476 19.4367H8.39971V20.9422H10.476V20.9421ZM21.1809 18.4054L22.2294 20.5925L23.1442 20.0683L22.117 17.9264C22.2458 17.8993 22.3789 17.8838 22.5148 17.8834C23.6788 17.8861 24.6215 18.9156 24.6226 20.1893C24.6214 21.4618 23.6787 22.4922 22.5148 22.494C21.3501 22.4921 20.4081 21.4618 20.4058 20.1893C20.4071 19.4695 20.7088 18.8281 21.1809 18.4054Z" fill="black"/>
<path d="M21.1158 13.2256V10.9202C20.5335 10.9202 20.0615 11.4363 20.0615 12.073C20.0615 12.1861 20.081 12.2934 20.1087 12.3972C20.2377 12.8746 20.6371 13.2256 21.1158 13.2256Z" fill="black"/>
<path d="M17.4834 6.40165C17.9307 5.50123 17.6257 4.3748 16.8021 3.88568C15.9786 3.39657 14.9483 3.72999 14.5009 4.6304C14.0536 5.53081 14.3586 6.65725 15.1822 7.14636C16.0058 7.63548 17.036 7.30206 17.4834 6.40165Z" fill="black"/>
<path d="M13.5362 18.6662C13.3756 19.2077 13.6472 19.7893 14.1427 19.9648C14.2392 19.9989 14.3372 20.0152 14.4334 20.0152C14.8313 20.0153 15.2013 19.7377 15.3305 19.3015L16.4872 15.3973C16.6301 14.9147 16.4314 14.391 16.0181 14.1607L13.2303 12.6083C13.2953 12.3112 13.3809 12.014 13.4788 11.7208C13.0986 11.4637 12.8033 11.0811 12.658 10.6493C12.5673 10.3876 12.5209 10.0989 12.5207 9.7925C12.5239 9.44491 12.582 8.90654 12.841 8.30613L12.85 8.28494L12.8519 8.28023L12.8555 8.27223C12.9847 7.99368 13.2426 7.82055 13.5286 7.82055C13.6463 7.82055 13.7644 7.85156 13.8699 7.91021C14.2392 8.1156 14.388 8.61182 14.2018 9.01657L14.2008 9.01929L14.1987 9.02432C14.195 9.03233 14.1894 9.04635 14.1818 9.0654C14.169 9.09749 14.1443 9.16339 14.1186 9.24909C14.0621 9.43543 14.0288 9.63792 14.0296 9.79159C14.0294 9.89676 14.043 9.99063 14.0688 10.0643C14.0796 10.0943 14.0922 10.1228 14.109 10.1512C14.2636 9.80916 14.4151 9.48912 14.546 9.20175C14.954 8.47308 14.9197 7.4436 14.3415 7.08743C13.7631 6.73126 12.7701 6.82884 12.1106 7.88283C11.2115 9.33801 10.8421 10.3502 10.5852 12.1734C10.5228 13.0579 10.8322 13.5228 11.2413 13.7921C11.2896 13.8338 11.3422 13.8712 11.3991 13.9029V13.9027L14.4449 15.5988L13.5362 18.6662Z" fill="black"/>
<path d="M13.9282 10.123C13.8956 10.0303 13.8787 9.91753 13.8789 9.79208C13.878 9.59139 13.9246 9.36473 13.9755 9.1977C14.0004 9.11414 14.0256 9.0451 14.0434 8.9999C14.0523 8.97738 14.0591 8.96064 14.0634 8.95115C14.0653 8.94628 14.0667 8.94331 14.0671 8.94216V8.94208C14.2166 8.6175 14.0981 8.22182 13.8016 8.0571C13.5045 7.89197 13.1411 8.02155 12.9902 8.34646L12.9901 8.34629C12.9735 8.39438 12.6792 8.99132 12.6719 9.79199C12.672 10.0418 12.7041 10.3158 12.7999 10.5919C12.9398 11.0075 13.2454 11.4117 13.6912 11.6627C14.137 11.9175 14.7007 12.0438 15.4244 12.0445C15.7962 12.0445 16.2117 12.0104 16.6805 11.9382C17.0105 11.8873 17.2404 11.5535 17.1939 11.1927C17.1472 10.8318 16.8421 10.5806 16.5119 10.6314C16.0892 10.6967 15.7285 10.7248 15.4244 10.7246C14.6274 10.7251 14.248 10.5301 14.0887 10.3733C14.0056 10.293 13.9616 10.2165 13.9282 10.123Z" fill="black"/>
</svg>
