<svg width="31" height="30" viewBox="0 0 31 30" fill="none" xmlns="http://www.w3.org/2000/svg">
<ellipse cx="15.5" cy="15" rx="15.5" ry="15" fill="#D82222"/>
<path d="M16.1514 18.3948L22.8593 24.7818C22.8593 24.7818 23.677 25.5613 25.1332 24.1745C26.5894 22.7877 25.7709 22.0089 25.7709 22.0089L19.6725 16.2009C18.6163 16.4734 17.7861 16.7748 17.4883 17.0592L16.1514 18.3948Z" fill="black"/>
<path d="M14.6164 12.7872L10.3656 8.73956L9.55641 6.94217L6.43981 5L5 6.37125L7.03849 9.33943L8.92576 10.1108L13.1462 14.1295L14.0785 13.4153C14.2718 13.2275 14.4488 13.0137 14.6164 12.7872Z" fill="black"/>
<path d="M25.9423 8.47975L21.9074 10.145L21.124 8.34017L21.2097 7.43517L24.5805 6.03571C24.5805 6.03571 22.6792 4.88347 20.6913 5.29477C18.7035 5.70682 18.2717 5.78774 17.8398 7.02387C17.4079 8.25776 16.803 12.1265 14.7287 14.1021L5.74914 20.9791C5.74914 20.9791 4.19162 22.6495 5.7507 24.1344C7.30978 25.6192 9.06296 24.1351 9.06296 24.1351L16.8038 16.4058C18.1002 15.1712 23.8033 14.5126 23.8033 14.5126L22.853 12.3225C25.0622 11.2913 25.9423 8.47975 25.9423 8.47975ZM8.37073 23.3934C7.86247 23.8782 7.03616 23.8782 6.52712 23.3934C6.01886 22.9086 6.01886 22.1232 6.5279 21.6384C7.03694 21.1528 7.86247 21.1528 8.37073 21.6384C8.87977 22.1224 8.87977 22.9079 8.37073 23.3934Z" fill="black"/>
</svg>
