<svg width="31" height="30" viewBox="0 0 31 30" fill="none" xmlns="http://www.w3.org/2000/svg">
<ellipse cx="15.5" cy="15" rx="15.5" ry="15" fill="#FFCA41"/>
<path d="M16.9092 9.24723C16.9279 8.69375 17.0186 8.36746 17.108 8.18781V9.26988C17.3389 9.32646 17.5349 9.48477 17.633 9.70515C17.805 10.091 17.6252 10.5427 17.232 10.7117C17.1913 10.7291 17.1496 10.7461 17.108 10.7632V12.467C17.108 12.6619 17.2688 12.8198 17.4672 12.8198C17.6656 12.8198 17.8265 12.6619 17.8265 12.467V9.89188H17.9611V12.467C17.9611 12.6618 18.122 12.8197 18.3203 12.8197C18.5187 12.8197 18.6796 12.6618 18.6796 12.467V8.18927C18.6967 8.22395 18.7141 8.2637 18.7313 8.31013C18.8131 8.53301 18.8821 8.89863 18.8818 9.46941C18.8819 9.62675 18.8767 9.79952 18.8654 9.98925C18.8579 10.1151 18.9557 10.223 19.0839 10.2304C19.0886 10.2307 19.0931 10.2308 19.0976 10.2308C19.2199 10.2308 19.3223 10.1371 19.3295 10.0158C19.3413 9.81801 19.3466 9.63641 19.3466 9.46941C19.3454 8.60841 19.2054 8.13194 19.0144 7.84533C18.9189 7.70314 18.8072 7.61182 18.7042 7.56137C18.6051 7.5123 18.5179 7.50118 18.4655 7.50056C18.4619 7.50035 18.4585 7.5 18.455 7.5H17.3325C17.3287 7.5 17.3251 7.50035 17.3214 7.50056C17.269 7.50125 17.182 7.51237 17.0832 7.5613C16.9269 7.63747 16.7584 7.80391 16.6405 8.09886C16.5268 8.38095 16.4488 8.78334 16.4414 9.37976C16.4971 9.35724 16.5528 9.33466 16.6073 9.31117C16.7035 9.26982 16.805 9.24862 16.9092 9.24723Z" fill="black"/>
<path d="M17.8935 7.33795C18.2546 7.33795 18.5473 7.05057 18.5473 6.69608C18.5473 6.34158 18.2546 6.0542 17.8935 6.0542C17.5325 6.0542 17.2397 6.34158 17.2397 6.69608C17.2397 7.05057 17.5325 7.33795 17.8935 7.33795Z" fill="black"/>
<path d="M8.23123 18.5636C8.58085 18.2783 9.02985 18.1063 9.51899 18.1063C9.67819 18.1063 9.833 18.1252 9.98165 18.1595V16.417H10.3098V18.2651C11.0302 18.5677 11.5364 19.2703 11.5364 20.0871C11.5364 20.71 11.2417 21.2664 10.7823 21.6297H10.8865C10.901 21.6297 10.9153 21.6303 10.9294 21.6312C11.1067 21.6349 11.3783 21.6721 11.6849 21.8242C11.815 21.8879 11.9405 21.9688 12.0602 22.0636V11.6621C12.4021 11.6309 12.8846 11.5785 13.4432 11.4941C14.5449 11.3264 15.9372 11.039 17.1469 10.5211C17.4332 10.3979 17.564 10.0701 17.4385 9.7887C17.3132 9.50745 16.9794 9.37923 16.6928 9.50238C15.6373 9.95703 14.3162 10.2379 13.2708 10.3951C12.7475 10.4744 12.2923 10.5239 11.9696 10.5536C11.8084 10.5684 11.6803 10.5783 11.5931 10.5843C11.5601 10.5866 11.5335 10.5884 11.5132 10.5897H11.5131H8.77827C8.77091 10.5897 8.76383 10.5905 8.75654 10.5907C8.62927 10.5917 8.41471 10.6182 8.17071 10.739C7.78995 10.9244 7.3796 11.3299 7.09248 12.0483C6.80169 12.7698 6.60646 13.8126 6.60547 15.3874C6.60568 15.7944 6.61885 16.2371 6.64766 16.719C6.66535 17.0144 6.91488 17.2423 7.21247 17.2423C7.22365 17.2423 7.23491 17.242 7.24623 17.2413C7.55847 17.2233 7.79667 16.9602 7.77841 16.6538C7.75066 16.1918 7.73827 15.7706 7.73827 15.3873C7.7358 13.704 7.98574 12.7586 8.2313 12.2653V18.5636H8.23123Z" fill="black"/>
<path d="M10.1454 10.193C11.0251 10.193 11.7381 9.49296 11.7381 8.62936C11.7381 7.76576 11.0251 7.06567 10.1454 7.06567C9.26581 7.06567 8.55273 7.76576 8.55273 8.62936C8.55273 9.49296 9.26581 10.193 10.1454 10.193Z" fill="black"/>
<path d="M13.0616 14.1795H24.0104V4H8.50806V6.54818H8.79135V4.27792H23.7271V13.9012L13.0616 13.9014V14.1795Z" fill="black"/>
<path d="M9.25919 21.6293H9.77876C10.5348 21.5074 11.1117 20.8633 11.1117 20.0866C11.1117 19.2229 10.3987 18.5229 9.51898 18.5229C8.63938 18.5229 7.92627 19.2229 7.92627 20.0866C7.92627 20.8632 8.50318 21.5074 9.25919 21.6293Z" fill="black"/>
<path d="M17.0931 20.0866C17.0931 19.2229 16.3802 18.5229 15.5004 18.5229C14.6208 18.5229 13.9077 19.2229 13.9077 20.0866C13.9077 20.8633 14.4846 21.5074 15.2406 21.6293H15.7602C16.5163 21.5074 17.0931 20.8632 17.0931 20.0866Z" fill="black"/>
<path d="M7.60446 23.7225V26H11.4335V23.7257C11.4754 23.8101 11.5178 23.907 11.5595 24.0201C11.7152 24.4437 11.8512 25.0805 11.9032 25.9999H13.115C13.1811 24.8335 13.3849 24.1262 13.5859 23.7224V25.9999H17.4149V23.7255C17.4569 23.8101 17.4992 23.9069 17.541 24.02C17.6966 24.4437 17.8326 25.0805 17.8846 25.9998H19.0964C19.1625 24.8334 19.3663 24.1261 19.5673 23.7223V25.9998H23.3963V23.7254C23.4383 23.81 23.4806 23.9069 23.5224 24.0199C23.6781 24.4436 23.814 25.0804 23.8661 25.9998H25C24.9182 24.4242 24.6108 23.4857 24.2121 22.8876C23.9796 22.5411 23.7076 22.3189 23.4562 22.1958C23.2144 22.0759 23.0017 22.0491 22.8741 22.0474C22.8658 22.0471 22.8576 22.0461 22.8491 22.0461H21.7728C21.6777 22.0597 21.5806 22.0671 21.4817 22.0671C21.3828 22.0671 21.2856 22.0598 21.1905 22.0461H20.1144C20.1049 22.0461 20.0957 22.0471 20.0863 22.0475C19.9584 22.0494 19.7472 22.0769 19.5071 22.1958C19.1526 22.3681 18.7729 22.7315 18.4904 23.36C18.4097 23.1821 18.3227 23.0256 18.2306 22.8876C17.9981 22.5411 17.7261 22.3189 17.4746 22.1958C17.2329 22.0759 17.0202 22.0491 16.8926 22.0474C16.8843 22.0471 16.8761 22.0461 16.8676 22.0461H14.1328C14.1233 22.0461 14.1141 22.0471 14.1048 22.0475C13.9768 22.0494 13.7656 22.0769 13.5255 22.1958C13.1711 22.3681 12.7913 22.7315 12.5088 23.36C12.4282 23.1821 12.3411 23.0256 12.2491 22.8876C12.0165 22.5411 11.7446 22.3189 11.4931 22.1958C11.2513 22.0759 11.0386 22.0491 10.911 22.0474C10.9027 22.0471 10.8946 22.0461 10.8861 22.0461H8.15157C8.14201 22.0461 8.13274 22.0471 8.12347 22.0475C7.99556 22.0494 7.7844 22.0769 7.54429 22.1958C7.16338 22.3811 6.75296 22.7865 6.46571 23.5052C6.23034 24.0892 6.05776 24.8837 6 26H7.13358C7.19956 24.8335 7.40342 24.1264 7.60446 23.7225Z" fill="black"/>
<path d="M21.4819 21.6503C22.3615 21.6503 23.0746 20.9502 23.0746 20.0866C23.0746 19.223 22.3615 18.5229 21.4819 18.5229C20.6022 18.5229 19.8892 19.223 19.8892 20.0866C19.8892 20.9502 20.6022 21.6503 21.4819 21.6503Z" fill="black"/>
<path d="M15.1852 6.42358H13.5571V6.70157H15.1852V6.42358Z" fill="black"/>
<path d="M21.2316 5.5376H19.6035V5.81559H21.2316V5.5376Z" fill="black"/>
<path d="M12.6659 4.92529H9.55127V5.20328H12.6659V4.92529Z" fill="black"/>
<path d="M11.4689 5.58569H9.55127V5.86368H11.4689V5.58569Z" fill="black"/>
<path d="M16.247 7.99871V7.85964H14.8534L14.4004 6.8584L14.2711 6.91483H14.271L14.7614 7.99871H16.247Z" fill="black"/>
<path d="M18.9482 6.80533H20.0325L20.4956 6.04162L20.3742 5.9706L20.374 5.97046L19.9521 6.66633H18.9482V6.80533Z" fill="black"/>
<path d="M22.5236 7.55249H20.8955V7.83048H22.5236V7.55249Z" fill="black"/>
<path d="M21.788 8.05749L21.6664 7.98654V7.98633L21.2444 8.6822H19.7271V8.8212H21.3249L21.788 8.05749Z" fill="black"/>
<path d="M22.0759 11.5078H20.4478V11.7858H22.0759V11.5078Z" fill="black"/>
<path d="M19.2788 10.6569H20.7963L21.2182 11.3526L21.3398 11.2815L20.8768 10.5178H19.2788V10.6569Z" fill="black"/>
<path d="M15.5744 12.8694H13.9463V13.1474H15.5744V12.8694Z" fill="black"/>
<path d="M15.2249 12.0172H16.7426V11.8782H15.1446L14.6816 12.6419L14.803 12.713V12.7128L15.2249 12.0172Z" fill="black"/>
</svg>
