<?xml version="1.0" encoding="utf-8"?>
<!-- Generator: Adobe Illustrator 23.0.6, SVG Export Plug-In . SVG Version: 6.00 Build 0)  -->
<svg version="1.1" id="Layer_1" xmlns="http://www.w3.org/2000/svg" xmlns:xlink="http://www.w3.org/1999/xlink" x="0px" y="0px"
	 viewBox="0 0 96 96" style="enable-background:new 0 0 96 96;" xml:space="preserve">
<style type="text/css">
	.st0{fill:#282E74;}
	.st1{fill:#F9FBFC;}
</style>
<circle class="st0" cx="48" cy="48" r="48"/>
<path class="st1" d="M21.3,52.2C13.9,52.2,8,58.7,8,66.7c0,5.8,3.1,10.7,7.5,13.1c1.7,0.9,3.7,1.4,5.8,1.5c6.4,0,11.8-5,13-11.7
	h18.4l10.6-22.8l3.8,8c-3.5,2.6-5.7,7-5.7,11.9c0,8,5.9,14.5,13.3,14.5c7.3,0,13.3-6.5,13.3-14.5c0-8-5.9-14.5-13.3-14.5
	c-1.4,0-2.7,0.2-4,0.7L58.9,28.2H50v1.7c0.6-0.1,1.2-0.1,1.8-0.2c0.1,0,0.3,0,0.4,0c1.4,0,2.6,1.2,2.8,2.7c0,0,0,0.1,0,0.1h1.5
	l2,4.1H41.6L41,38.1l9.2,5.1c1.8,1,2.7,3.3,2.1,5.5l-4.4,14.9c-0.6,1.9-2.2,3.2-4,3.2c-0.4,0-0.9-0.1-1.3-0.2
	c-1.1-0.4-1.9-1.2-2.4-2.3c-0.5-1.1-0.6-2.3-0.3-3.5l3.3-11.2l-9.7-5.4H13.7l-3,5.4l16.3,0c3.2,2.2,8.9,7.1,10,14.3h-2.8
	C33.1,57.2,27.7,52.2,21.3,52.2z M28.9,69.6c-1.1,3.4-4.1,5.9-7.6,5.9c-4.4,0-8-3.9-8-8.8c0-4.9,3.6-8.8,8-8.8
	c3.5,0,6.5,2.5,7.6,5.9H21v5.7L28.9,69.6L28.9,69.6z M69.6,59.9l4,8.3l3.5-2l-3.9-8.2c0.5-0.1,1-0.2,1.5-0.2c4.4,0,8,3.9,8,8.8
	c0,4.8-3.6,8.8-8,8.8c-4.4,0-8-3.9-8-8.8C66.7,64,67.8,61.5,69.6,59.9z"/>
<path class="st1" d="M69.4,40.2v-8.8c-2.2,0-4,2-4,4.4c0,0.4,0.1,0.8,0.2,1.2C66,38.9,67.6,40.2,69.4,40.2z"/>
<path class="st1" d="M55.6,14.2c1.7-3.4,0.5-7.7-2.6-9.6c-3.1-1.9-7.1-0.6-8.8,2.8c-1.7,3.4-0.5,7.7,2.6,9.6
	C49.9,18.9,53.9,17.6,55.6,14.2z"/>
<path class="st1" d="M40.5,60.9c-0.6,2.1,0.4,4.3,2.3,4.9c0.4,0.1,0.7,0.2,1.1,0.2c1.5,0,2.9-1.1,3.4-2.7l4.4-14.9
	c0.5-1.8-0.2-3.8-1.8-4.7l-10.6-5.9c0.2-1.1,0.6-2.3,0.9-3.4c-1.4-1-2.6-2.4-3.1-4.1c-0.3-1-0.5-2.1-0.5-3.3c0-1.3,0.2-3.4,1.2-5.7
	l0-0.1l0,0l0,0c0.5-1.1,1.5-1.7,2.6-1.7c0.4,0,0.9,0.1,1.3,0.3c1.4,0.8,2,2.7,1.3,4.2l0,0l0,0c0,0,0,0.1-0.1,0.2
	c0,0.1-0.1,0.4-0.2,0.7c-0.2,0.7-0.3,1.5-0.3,2.1c0,0.4,0.1,0.8,0.1,1c0,0.1,0.1,0.2,0.2,0.3c0.6-1.3,1.2-2.5,1.7-3.6
	c1.6-2.8,1.4-6.7-0.8-8.1c-2.2-1.4-6-1-8.5,3c-3.4,5.5-4.8,9.4-5.8,16.3c-0.2,3.4,0.9,5.1,2.5,6.2c0.2,0.2,0.4,0.3,0.6,0.4v0
	L44,49.2L40.5,60.9z"/>
<path class="st1" d="M42,28.4c-0.1-0.4-0.2-0.8-0.2-1.3c0-0.8,0.2-1.6,0.4-2.3c0.1-0.3,0.2-0.6,0.3-0.8c0-0.1,0.1-0.1,0.1-0.2
	c0,0,0,0,0,0v0c0.6-1.2,0.1-2.7-1-3.4c-1.1-0.6-2.5-0.1-3.1,1.1l0,0c-0.1,0.2-1.2,2.5-1.2,5.5c0,1,0.1,2,0.5,3
	c0.5,1.6,1.7,3.1,3.4,4.1c1.7,1,3.8,1.5,6.6,1.5c1.4,0,3-0.1,4.8-0.4c1.3-0.2,2.1-1.5,2-2.8c-0.2-1.4-1.3-2.3-2.6-2.1
	c-1.6,0.2-3,0.4-4.1,0.4c-3,0-4.5-0.7-5.1-1.3C42.3,29,42.1,28.7,42,28.4z"/>
</svg>
