<?xml version="1.0" encoding="utf-8"?>
<!-- Generator: Adobe Illustrator 23.0.6, SVG Export Plug-In . SVG Version: 6.00 Build 0)  -->
<svg version="1.1" id="Layer_1" xmlns="http://www.w3.org/2000/svg" xmlns:xlink="http://www.w3.org/1999/xlink" x="0px" y="0px"
	 viewBox="0 0 31 30" style="enable-background:new 0 0 31 30;" xml:space="preserve">
<style type="text/css">
	.st0{fill:#282E74;}
	.st1{fill:#FFFFFF;}
</style>
<ellipse class="st0" cx="15.5" cy="15" rx="15.5" ry="15"/>
<path class="st1" d="M19.4,7.5c0.5-2.1-0.8-4.1-3-4.6c-2.1-0.5-4.3,0.8-4.8,2.9s0.8,4.1,3,4.6C16.7,10.8,18.9,9.5,19.4,7.5z"/>
<path class="st1" d="M15.8,27c2.9-0.2,5.2-2.5,5.2-5.2c0-0.1,0-0.2,0-0.3c-0.1-1.1-0.5-2.2-1.2-3c-0.4,0.3-0.9,0.5-1.5,0.5
	c-1,0-1.9-0.6-2.3-1.4c0.5,0.6,1.2,1,2.1,1c1.5,0,2.6-1.1,2.6-2.5c0-0.1,0-0.2,0-0.3c0.1,0.2,0.1,0.5,0.1,0.8c0,0.5-0.1,0.9-0.4,1.3
	c0.4,2.6,1.5,4.4,1.5,4.5c0.1,0.2,0.2,0.3,0.3,0.4c0.1,0,1.8,1.4,4.1,2.1c0.7,0.2,1.4-0.2,1.6-0.9c0.2-0.7-0.2-1.4-0.9-1.6
	c-0.8-0.2-1.6-0.6-2.2-1c-0.3-0.2-0.5-0.3-0.7-0.5c0,0,0,0,0,0c-0.3-0.7-1.2-2.8-1.3-5c0-1.1-0.4-2-1.1-2.7c-0.9-1-2.2-1.6-3.3-1.9
	c-1.1-0.3-2.2-0.4-3-0.4c-1,0-2.6,0.1-4.1,0.8c-0.8,0.3-1.5,0.8-2.2,1.5c-0.6,0.7-1,1.6-1.1,2.7c0,1.4-0.4,2.8-0.7,3.7
	c-0.2,0.5-0.3,0.9-0.5,1.2c0,0.1,0,0.1-0.1,0.1c-0.5,0.3-1.7,1.1-2.9,1.4c-0.7,0.2-1.1,0.9-0.9,1.6c0.2,0.6,0.7,0.9,1.3,0.9
	c0.1,0,0.2,0,0.4,0c2.3-0.6,4-2,4.1-2.1c0.1-0.1,0.3-0.2,0.3-0.4c0-0.1,1-1.9,1.5-4.5c-0.3-0.4-0.4-0.8-0.4-1.3c0-0.3,0-0.5,0.1-0.8
	c0,0.1,0,0.2,0,0.3c0,1.4,1.2,2.5,2.6,2.5c0.8,0,1.6-0.4,2.1-1c-0.4,0.8-1.3,1.4-2.3,1.4c-0.6,0-1.1-0.2-1.5-0.5
	c-0.9,1-1.3,2.3-1.3,3.6c0,0.1,0,0.2,0,0.3C10.3,25.1,12.9,27.2,15.8,27z"/>
</svg>
