<svg width="31" height="30" viewBox="0 0 31 30" fill="none" xmlns="http://www.w3.org/2000/svg">
<ellipse cx="15.5" cy="15" rx="15.5" ry="15" fill="#A0DFFA"/>
<path fill-rule="evenodd" clip-rule="evenodd" d="M21.3949 27C21.2786 26.5389 21.2413 25.9538 21.2331 25.5933C21.1367 21.541 20.7144 18.3036 19.9769 15.9702C19.8429 15.5446 19.7061 15.1751 19.571 14.8538L19.9518 14.7236C20.0882 15.0501 20.2248 15.4191 20.3581 15.842C20.9819 17.8176 21.5221 20.8971 21.6332 25.5837C21.6486 26.2478 22.1758 26.7754 22.8161 26.7754C22.8193 26.7754 22.8225 26.7754 22.8257 26.7754C22.8322 26.7754 22.8386 26.7753 22.8453 26.7751C23.4992 26.7583 24.016 26.1982 23.9996 25.5234C23.8596 19.8033 23.1206 16.2384 22.2055 13.9523C21.9815 13.3924 21.7468 12.9082 21.5079 12.4892C20.8998 11.4279 20.2492 10.7864 19.6903 10.4202C19.2997 10.1625 18.9635 10.0463 18.74 9.99425C17.9539 10.8123 16.8696 11.3059 15.683 11.3059C15.3547 11.3059 15.0242 11.2664 14.7013 11.1892C13.884 10.9926 13.1758 10.5662 12.624 9.99255C12.396 10.0484 12.0573 10.1792 11.6652 10.4527C11.6516 10.4593 11.6428 10.4638 11.6428 10.4638L11.6418 10.4694C11.3914 10.6469 11.1209 10.8813 10.8439 11.1927C10.4009 11.6864 9.93415 12.36 9.46887 13.2924C8.99284 14.2465 8.51882 15.4713 8.07448 17.0557C8.03369 17.2001 8.00055 17.3681 8 17.5694C7.99964 17.7555 8.03169 17.9785 8.13057 18.2006C8.27425 18.542 8.58383 18.8144 8.84843 18.9245C9.11704 19.0426 9.33812 19.0608 9.52568 19.0625C9.88552 19.0585 10.1663 18.9837 10.4664 18.8926C11.4802 18.5653 12.7067 17.8969 13.7624 17.2942C14.8064 16.6941 15.631 16.1655 15.6404 16.1591C16.1958 15.8027 16.3665 15.0497 16.0214 14.4764C15.6767 13.9031 14.9471 13.7273 14.3917 14.0832C14.3916 14.0832 14.3877 14.0857 14.3801 14.0905C14.3261 14.1248 14.0882 14.2761 13.7309 14.4944C13.1197 14.8683 12.1686 15.4311 11.2832 15.8867C11.1421 15.9597 11.0022 16.0298 10.8663 16.0956C11.2357 15.0634 11.6008 14.3091 11.9267 13.7625L12.3516 13.8439C12.1398 14.183 11.8952 14.6362 11.6367 15.2345C12.3973 14.8213 13.1194 14.3873 13.5258 14.1384C13.8571 13.9369 14.0841 13.7927 14.1563 13.7469C14.1646 13.7416 14.1709 13.7376 14.175 13.735C14.4318 13.5707 14.7202 13.4856 15.0149 13.4856C15.5672 13.4856 16.0706 13.7743 16.3616 14.258C16.5848 14.6292 16.6548 15.0676 16.5584 15.4933C16.4619 15.9187 16.2108 16.28 15.8511 16.51C15.848 16.5125 15.0205 17.0441 13.9569 17.6555C12.8719 18.2745 11.6243 18.9518 10.5855 19.2869C10.3668 19.3535 10.1354 19.417 9.87096 19.4506L8.97226 27H21.3949Z" fill="#001833"/>
<path d="M19.4922 7.76789C19.9825 5.59457 18.6732 3.42248 16.5678 2.91638C14.4624 2.41029 12.3581 3.76184 11.8678 5.93516C11.3774 8.10848 12.6867 10.2806 14.7921 10.7867C16.8976 11.2928 19.0018 9.94121 19.4922 7.76789Z" fill="#001833"/>
</svg>
