<svg width="31" height="30" viewBox="0 0 31 30" fill="none" xmlns="http://www.w3.org/2000/svg">
<ellipse cx="15.5" cy="15" rx="15.5" ry="15" fill="#B6F698"/>
<path fill-rule="evenodd" clip-rule="evenodd" d="M23.8865 27L22.9788 22.6505C22.2415 23.3731 21.3476 24.0715 20.2791 24.7622C19.9742 24.9587 19.6207 25.0619 19.2563 25.0619C18.6463 25.0619 18.0793 24.7742 17.7385 24.2911C17.6409 24.1535 17.5667 24.0057 17.5143 23.8519L16.6982 24.424C16.4067 24.6283 16.0723 24.7344 15.7365 24.7503C15.7442 25.0705 15.6611 25.3874 15.4876 25.671C15.1601 26.2044 14.5543 26.5359 13.9067 26.5359C13.5831 26.5359 13.2645 26.4533 12.9836 26.296C11.4737 25.4502 10.2203 24.543 9.23793 23.5884L8.52612 27H23.8865Z" fill="#001833"/>
<path d="M15.1083 10.527C17.5392 11.068 19.9692 9.62328 20.5356 7.29959C21.1012 4.97651 19.5892 2.65465 17.1583 2.11344C14.7271 1.57264 12.2971 3.01736 11.7311 5.34085C11.1646 7.66414 12.6766 9.9862 15.1083 10.527Z" fill="#001833"/>
<path d="M8.52986 22.4127C9.54668 23.7019 11.0524 24.927 13.128 26.0902C13.3502 26.2143 13.5937 26.2738 13.8338 26.2738C14.3143 26.2738 14.7823 26.0366 15.0426 25.6119C15.4331 24.9748 15.2095 24.1558 14.5425 23.7826C12.6985 22.7515 11.4867 21.7225 10.7659 20.8049C10.0431 19.8809 9.80158 19.0976 9.79921 18.4217C9.79921 18.2485 9.81751 18.0802 9.84959 17.9148C9.85217 17.9013 9.85325 17.8874 9.85583 17.8741C9.85626 17.8717 9.85648 17.8692 9.85691 17.8668C9.96821 17.3274 10.2612 16.7919 10.7161 16.3008L10.239 18.5879C10.284 19.218 10.568 19.8647 11.111 20.5585C11.4968 21.0498 12.0139 21.5477 12.6415 22.0382L14.2101 22.1132C14.3001 22.0106 14.4025 21.9151 14.5207 21.8323L15.6665 21.0289L15.0913 20.6685C14.6562 20.3957 14.5345 19.8378 14.82 19.4215C15.1055 19.0058 15.6898 18.8895 16.1247 19.1622L18.1077 20.4051C18.1464 20.4297 18.1796 20.4581 18.213 20.4871C18.4257 20.6016 18.6177 20.7591 18.7717 20.9596C18.8799 21.1005 18.962 21.2522 19.019 21.4092C19.8916 20.749 20.5719 20.0702 21.0714 19.4601C21.6576 18.7441 21.8062 18.0761 21.8352 17.6703L21.502 16.0734C21.8856 16.4873 22.1089 16.9287 22.1765 17.3754C22.1765 17.3756 22.1765 17.3758 22.1765 17.376C22.1773 17.3824 22.1771 17.3889 22.178 17.3953C22.192 17.4948 22.2006 17.5963 22.2012 17.6999C22.1997 18.2366 22.0083 18.8948 21.4251 19.6952C20.8449 20.4914 19.8692 21.4054 18.3983 22.3536C17.7578 22.7669 17.5893 23.5982 18.0216 24.2101C18.292 24.5927 18.7335 24.7992 19.1826 24.7992C19.4522 24.7992 19.7247 24.725 19.9648 24.5702V24.5698C21.6443 23.4847 22.8779 22.3751 23.7192 21.2277C24.4056 20.2919 24.8217 19.3139 24.9518 18.344C24.9806 18.1289 25.0002 17.9138 25 17.7001C25 17.4597 24.9817 17.2239 24.9468 16.9933C24.9451 16.9814 24.9419 16.9704 24.9397 16.9589C24.6581 15.218 23.429 13.8411 21.86 12.955C20.2675 12.0531 18.2761 11.5724 16.1328 11.57C14.0312 11.5724 12.021 12.1284 10.3934 13.1114C8.78218 14.0863 7.50745 15.5275 7.11712 17.3282C7.11562 17.335 7.11325 17.3413 7.11196 17.3482H7.11153C7.04414 17.6713 7.00754 18.0039 7.00216 18.3417C7.00173 18.3683 7.00001 18.3949 7.00001 18.4217C6.99785 19.7523 7.51412 21.1291 8.52986 22.4127ZM20.2096 19.6638C19.3159 20.2902 18.0601 20.1058 17.4052 19.2524C16.7492 18.3979 16.9421 17.1978 17.8358 16.5719C18.7292 15.9456 19.9848 16.1299 20.6408 16.9835C21.2959 17.8373 21.103 19.0375 20.2096 19.6638Z" fill="#001833"/>
</svg>
