<svg  width="98" height="252" viewBox="0 0 98 252" fill="none" xmlns="http://www.w3.org/2000/svg">
<path style="fill:#ffb2b0;" d="M26.8989 241.419C26.8989 246.942 31.3759 251.419 36.8989 251.419C42.4199 251.419 46.8989 246.942 46.8989 241.419V191.875C39.1939 191.777 32.5159 191.019 26.8989 189.977V241.419Z" fill="black"/>
<path style="fill:#ffb2b0;" d="M50.2329 191.875V241.419C50.2329 246.942 54.7089 251.419 60.2329 251.419C65.7529 251.419 70.2329 246.942 70.2329 241.419V189.977C64.6159 191.019 57.9369 191.777 50.2329 191.875Z" fill="black"/>
<path style="fill:#ffb2b0;" d="M48.5658 188.975C73.8308 188.975 88.4948 181.818 91.3668 180.272C91.7148 180.085 91.8998 179.975 91.8998 179.975L72.4958 84.612C76.7888 84.519 80.8758 84.23 84.5528 83.402C86.8768 82.848 89.1108 82.139 91.3269 80.545C92.4209 79.744 93.5148 78.658 94.3358 77.22C95.1618 75.793 95.6218 74.031 95.6088 72.376C95.6008 70.259 94.9788 68.423 94.1388 66.802C94.0698 66.669 94.0018 66.534 93.9298 66.404C92.9669 64.678 91.7318 63.115 90.2128 61.505C90.2098 61.502 90.2068 61.5 90.2048 61.497C85.6688 56.746 78.4278 51.393 66.9908 44.344C63.9318 42.463 59.9288 43.419 58.0498 46.478C56.1718 49.537 57.1278 53.543 60.1868 55.42C71.1378 62.128 77.7748 67.242 80.7698 70.439C80.7718 70.44 80.7729 70.442 80.7738 70.443C80.9038 70.58 81.0268 70.713 81.1428 70.842C80.4888 70.98 79.7318 71.107 78.9048 71.196C78.7668 71.213 78.6188 71.227 78.4768 71.243C75.8668 71.5359 72.6049 71.654 69.1329 71.651C64.1959 71.654 58.8848 71.433 54.0318 71.306C53.9348 70.224 53.8748 69.074 53.8398 67.856C53.8188 67.275 53.8008 66.681 53.7818 66.077C57.6068 65.117 61.0978 63.122 63.8598 60.33C62.3268 59.34 60.7188 58.327 59.0388 57.298C54.9478 54.783 53.6638 49.413 56.1758 45.327C57.7728 42.73 60.5428 41.18 63.5928 41.18C65.1968 41.18 66.7708 41.625 68.1418 42.468C68.7778 42.86 69.3948 43.244 70.0048 43.625C69.3258 34.498 62.8218 26.476 53.4408 24.29C41.8778 21.599 30.3238 28.79 27.6298 40.35C27.3848 41.404 27.2228 42.458 27.1378 43.505C28.0728 42.629 29.0268 41.739 30.0138 40.825C31.6278 39.333 33.7268 38.511 35.9218 38.511C38.3388 38.511 40.6668 39.527 42.3078 41.301C43.4848 42.572 44.2018 44.106 44.4808 45.698C46.0608 46.287 48.0658 48.152 49.8378 53.745C51.7588 59.947 51.1218 66.745 51.7188 72.316C52.0308 75.096 52.6608 77.648 54.3238 79.621C55.6618 81.21 57.6268 82.272 60.2708 82.712C59.2658 83.79 57.5948 85.229 55.6418 86.417C52.5598 88.366 48.7098 89.947 45.5228 89.932C43.6508 89.9249 42.0518 89.433 40.7448 88.247C39.4418 87.058 38.3618 85.074 37.8358 81.865C37.3538 78.926 37.1628 76.421 37.1628 74.264C37.1478 65.547 40.2168 62.62 40.3448 58.365C40.3498 57.451 40.1468 56.511 39.7298 55.556C37.6948 57.457 35.7758 59.276 33.9788 61.008C34.8118 61.779 35.7078 62.49 36.6648 63.126C35.8568 65.474 34.9468 68.606 34.7948 73.045C32.4248 73.549 30.0488 74.103 27.7068 74.644C24.2298 75.462 20.8848 76.262 17.9918 76.836C17.2158 76.993 16.4708 77.129 15.7658 77.248C17.0388 75.567 18.7628 73.492 20.9698 71.088C25.3908 66.239 31.7368 59.942 40.3388 51.98C42.9728 49.541 43.1308 45.429 40.6938 42.795C38.2558 40.161 34.1428 40.002 31.5088 42.441L31.5068 42.438C22.7348 50.561 16.1738 57.059 11.3658 62.324C11.3648 62.325 11.3628 62.327 11.3618 62.328C6.55585 67.626 3.50585 71.552 1.63485 75.252V75.251C0.742845 77.106 0.0298454 78.965 -0.000154606 81.378C-0.0131546 82.836 0.352845 84.552 1.24885 86.034C2.60485 88.312 4.76985 89.531 6.46385 90.06C8.21085 90.616 9.75685 90.724 11.2938 90.735C14.2428 90.722 17.2538 90.232 20.5258 89.591C21.5828 89.381 22.6688 89.145 23.7628 88.903L5.23285 179.975C5.23285 179.975 5.41885 180.085 5.76585 180.272C8.63785 181.818 23.3008 188.975 48.5658 188.975Z" fill="black"/>
<path style="fill:#ffb2b0;" d="M97.0098 15.3216C92.4668 7.06262 77.9028 20.5566 77.9028 20.5566C87.0638 19.6836 101.552 23.5816 97.0098 15.3216Z" fill="black"/>
<path style="fill:#ffb2b0;" d="M78.1968 33.1287C85.1918 35.6367 94.4428 43.4587 93.9598 35.8627C93.4738 28.2667 78.1968 33.1287 78.1968 33.1287Z" fill="black"/>
<path style="fill:#ffb2b0;" d="M77.0617 0.22678C67.9877 -2.32922 67.3887 17.5178 67.3887 17.5178C73.1937 10.3768 86.1337 2.78378 77.0617 0.22678Z" fill="black"/>
</svg>
