<svg width="31" height="30" viewBox="0 0 31 30" fill="none" xmlns="http://www.w3.org/2000/svg">
<ellipse cx="15.5" cy="15" rx="15.5" ry="15" fill="#FBB1D9"/>
<path d="M19.362 7.46071C19.8587 5.40315 18.5323 3.34674 16.3995 2.86758C14.2666 2.38842 12.135 3.66797 11.6383 5.72552C11.1416 7.78307 12.468 9.83949 14.6008 10.3186C16.7337 10.7978 18.8653 9.51826 19.362 7.46071Z" fill="#001833"/>
<path d="M15.7992 26.9902C18.7275 26.8228 20.9888 24.5358 20.9975 21.812C20.9979 21.7056 20.996 21.5988 20.9894 21.4913C20.9199 20.3577 20.4674 19.332 19.7585 18.5163C19.336 18.8208 18.8134 19.0033 18.2453 19.0033C17.2333 19.0033 16.3623 18.4298 15.9562 17.6024C16.4387 18.192 17.1848 18.5717 18.0239 18.5717C19.4788 18.5717 20.6581 17.4338 20.6581 16.0299C20.6581 15.9445 20.6534 15.8601 20.6449 15.7771C20.7308 16.0227 20.7796 16.2849 20.7796 16.5585C20.7796 17.0454 20.6304 17.4978 20.376 17.8788C20.819 20.459 21.8316 22.2996 21.8646 22.375C21.95 22.5328 22.0667 22.6693 22.2112 22.7806C22.2864 22.8262 24.0348 24.2109 26.3256 24.8353C27.0297 25.0224 27.7578 24.6241 27.952 23.9454C28.1463 23.2664 27.7334 22.5638 27.0295 22.3765C26.2312 22.1662 25.4103 21.7626 24.8116 21.4101C24.5117 21.2344 24.2658 21.0723 24.0994 20.9578C24.0945 20.9542 24.0894 20.9509 24.0846 20.9475C23.7545 20.2511 22.8811 18.1714 22.8224 15.9017C22.7975 14.8312 22.3825 13.879 21.7672 13.1854C20.8396 12.1377 19.5954 11.6166 18.4561 11.305C17.3074 10.9989 16.2333 10.9144 15.5002 10.9128C14.5245 10.9186 12.9335 11.0563 11.3855 11.6986C10.6155 12.0235 9.84619 12.4859 9.23274 13.1854C8.61777 13.8792 8.20282 14.8312 8.17789 15.9017C8.13728 17.3212 7.78768 18.6699 7.44337 19.6489C7.27225 20.1383 7.10378 20.5357 6.98064 20.8046C6.95589 20.8587 6.93304 20.9076 6.91245 20.9513C6.41704 21.2916 5.18466 22.0629 3.97078 22.3765C3.26667 22.5638 2.8538 23.266 3.04796 23.9454C3.20982 24.5108 3.74168 24.8816 4.32152 24.8818C4.43824 24.8818 4.55666 24.8667 4.67452 24.8353C6.96553 24.2113 8.7141 22.8262 8.78851 22.7806C8.933 22.6695 9.04972 22.533 9.13547 22.375C9.16871 22.2996 10.1814 20.4588 10.6243 17.8784C10.3701 17.4974 10.2209 17.0452 10.2209 16.5585C10.2209 16.2849 10.2696 16.0227 10.3556 15.7771C10.3469 15.8601 10.3424 15.9445 10.3424 16.0299C10.3424 17.4338 11.522 18.5717 12.9769 18.5717C13.8165 18.5717 14.5627 18.1916 15.0451 17.6015C14.639 18.4294 13.7677 19.0033 12.7556 19.0033C12.1823 19.0033 11.6552 18.8175 11.2306 18.5079C10.3722 19.4858 9.88774 20.758 9.97141 22.1216C9.97802 22.2304 9.98954 22.3377 10.0031 22.4441C10.3476 25.1463 12.8725 27.1577 15.7992 26.9902Z" fill="#001833"/>
</svg>

