<svg width="24" height="24" viewBox="0 0 24 24" fill="none" xmlns="http://www.w3.org/2000/svg">
<path d="M19.8612 5.02779C19.1293 2.1389 16.7319 0 13.8801 0C11.3817 0 9.23658 1.61112 8.25236 3.94445C8.12617 3.94445 7.99999 3.91668 7.87381 3.91668C5.82964 3.91668 4.16403 5.69445 4.06309 7.91667C3.9369 7.91667 3.81072 7.8889 3.68454 7.8889C1.66561 7.8889 0 9.69445 0 11.9445C0 14.1667 1.64037 16 3.68454 16H18.9779C21.7539 16 24 13.5278 24 10.4722C24 7.72223 22.2082 5.47224 19.8612 5.02779Z" fill="#001833"/>
<path d="M5.6531 17.5C5.22408 17.3056 4.74458 17.5278 4.56793 18L2.8266 22.75C2.64994 23.2222 2.85184 23.75 3.28087 23.9445C3.38181 24 3.48275 24 3.58369 24C3.91177 24 4.21461 23.7778 4.34079 23.4444L6.08212 18.6944C6.25878 18.2222 6.05688 17.6945 5.6531 17.5Z" fill="#001833"/>
<path d="M9.99343 17.5C9.56441 17.3056 9.08492 17.5278 8.90826 18L7.16693 22.75C6.99027 23.2222 7.19216 23.75 7.62119 23.9445C7.72213 24 7.82308 24 7.92403 24C8.2521 24 8.55494 23.7778 8.68113 23.4444L10.4225 18.6944C10.6244 18.2222 10.4225 17.6945 9.99343 17.5Z" fill="#001833"/>
<path d="M14.3596 17.5C13.9306 17.3056 13.4511 17.5278 13.2745 18L11.5331 22.75C11.3565 23.2222 11.5584 23.75 11.9874 23.9445C12.0884 24 12.1893 24 12.2902 24C12.6183 24 12.9212 23.7778 13.0473 23.4444L14.7887 18.6944C14.9906 18.2222 14.7887 17.6945 14.3596 17.5Z" fill="#001833"/>
<path d="M18.7005 17.5C18.2714 17.3056 17.7919 17.5278 17.6153 18L15.874 22.75C15.6973 23.2222 15.8992 23.75 16.3282 23.9445C16.4292 24 16.5301 24 16.6311 24C16.9591 24 17.262 23.7778 17.3882 23.4444L19.1295 18.6944C19.3314 18.2222 19.1295 17.6945 18.7005 17.5Z" fill="#001833"/>
</svg>
