<svg width="24" height="24" viewBox="0 0 24 24" fill="none" xmlns="http://www.w3.org/2000/svg">
<path d="M12.0127 5.64705C8.50482 5.64705 5.65308 8.49579 5.65308 12C5.65308 15.5042 8.50482 18.3529 12.0127 18.3529C15.5206 18.3529 18.3723 15.5042 18.3723 12C18.3723 8.49579 15.5206 5.64705 12.0127 5.64705Z" fill="#001833"/>
<path d="M12.0126 4.33612C12.4669 4.33612 12.8454 3.95798 12.8454 3.50419V0.83193C12.8454 0.378148 12.4669 0 12.0126 0C11.5584 0 11.1798 0.378148 11.1798 0.83193V3.50419C11.1798 3.98319 11.5584 4.33612 12.0126 4.33612Z" fill="#001833"/>
<path d="M5.42591 6.57983C5.57733 6.73109 5.80446 6.83193 6.00635 6.83193C6.20824 6.83193 6.43537 6.7563 6.58679 6.57983C6.91486 6.2521 6.91486 5.7479 6.58679 5.42017L4.69404 3.52941C4.36597 3.20168 3.86124 3.20168 3.53317 3.52941C3.20509 3.85714 3.20509 4.36134 3.53317 4.68907L5.42591 6.57983Z" fill="#001833"/>
<path d="M4.34068 12C4.34068 11.5462 3.96214 11.1681 3.50788 11.1681H0.832805C0.378546 11.1681 0 11.5462 0 12C0 12.4538 0.378546 12.8319 0.832805 12.8319H3.50788C3.98737 12.8319 4.34068 12.4538 4.34068 12Z" fill="#001833"/>
<path d="M5.42591 17.4202L3.53317 19.3109C3.20509 19.6387 3.20509 20.1429 3.53317 20.4706C3.68459 20.6219 3.91171 20.7227 4.1136 20.7227C4.3155 20.7227 4.54262 20.6471 4.69404 20.4706L6.58679 18.5798C6.91486 18.2521 6.91486 17.7479 6.58679 17.4202C6.28395 17.0924 5.75399 17.0924 5.42591 17.4202Z" fill="#001833"/>
<path d="M12.0127 19.6639C11.5585 19.6639 11.1799 20.042 11.1799 20.4958V23.1681C11.1799 23.6219 11.5585 24 12.0127 24C12.467 24 12.8455 23.6219 12.8455 23.1681V20.4958C12.8455 20.0168 12.467 19.6639 12.0127 19.6639Z" fill="#001833"/>
<path d="M18.5993 17.4202C18.2712 17.0924 17.7665 17.0924 17.4384 17.4202C17.1104 17.7479 17.1104 18.2521 17.4384 18.5798L19.3312 20.4706C19.4826 20.6219 19.7097 20.7227 19.9116 20.7227C20.1135 20.7227 20.3406 20.6471 20.4921 20.4706C20.8201 20.1429 20.8201 19.6387 20.4921 19.3109L18.5993 17.4202Z" fill="#001833"/>
<path d="M23.1671 11.1681H20.492C20.0377 11.1681 19.6592 11.5462 19.6592 12C19.6592 12.4538 20.0377 12.8319 20.492 12.8319H23.1671C23.6213 12.8319 23.9999 12.4538 23.9999 12C23.9999 11.5462 23.6213 11.1681 23.1671 11.1681Z" fill="#001833"/>
<path d="M18.0189 6.83193C18.2208 6.83193 18.4479 6.7563 18.5993 6.57983L20.4921 4.68907C20.8201 4.36134 20.8201 3.85714 20.4921 3.52941C20.164 3.20168 19.6593 3.20168 19.3312 3.52941L17.4384 5.42017C17.1104 5.7479 17.1104 6.2521 17.4384 6.57983C17.5899 6.7563 17.7917 6.83193 18.0189 6.83193Z" fill="#001833"/>
</svg>
